<?xml version="1.0" encoding="UTF-8" standalone="no"?><!DOCTYPE svg PUBLIC "-//W3C//DTD SVG 1.1//EN" "http://www.w3.org/Graphics/SVG/1.1/DTD/svg11.dtd"><svg width="100%" height="100%" viewBox="0 0 1691 358" version="1.1" xmlns="http://www.w3.org/2000/svg" xmlns:xlink="http://www.w3.org/1999/xlink" xml:space="preserve" xmlns:serif="http://www.serif.com/" style="fill-rule:evenodd;clip-rule:evenodd;stroke-linejoin:round;stroke-miterlimit:2;"><g transform="matrix(1,0,0,1,-2114,0)"><g id="logo_name_completo_horizontal" transform="matrix(2.425424,0,0,0.513285,-3013.517643,-1921.224068)"><rect x="2114.071" y="3743" width="696.85" height="696.85" style="fill:none;"/><clipPath id="_clip1"><rect x="2114.071" y="3743" width="696.85" height="696.85"/></clipPath><g clip-path="url(#_clip1)"><g transform="matrix(1.186075,0,0,1,-393.376463,0)"><g transform="matrix(0.31321,0,0,1.755403,1971.996328,448.298618)"><g transform="matrix(0.570967,0,0,0.410586,471.520095,1179.4523)"><path d="M618.576,1989.911L618.576,2102.724L547.114,2173.357L547.114,1941.397L618.576,1989.911Z" style="fill:url(#_Linear2);"/></g><g><g><g transform="matrix(1.023805,0,0,1.023805,-20.828838,-50.803697)"><rect x="871.734" y="2094.815" width="22.348" height="22.348" style="fill:url(#_Linear3);"/></g><g transform="matrix(0,1.023805,-1.023805,0,3068.838191,1201.393138)"><rect x="871.734" y="2094.815" width="22.348" height="22.348" style="fill:url(#_Linear4);"/></g><g transform="matrix(0,1.023805,-1.023805,0,3039.218263,1231.013066)"><rect x="871.734" y="2094.815" width="22.348" height="22.348" style="fill:url(#_Linear5);"/></g><g transform="matrix(0,1.023805,-1.023805,0,3068.838191,1231.013066)"><rect x="871.734" y="2094.815" width="22.348" height="22.348" style="fill:url(#_Linear6);"/></g></g><path d="M1008.472,2091.248L1083.496,2148.851L1024.758,2139.779L1024.758,2163.72L987.254,2169.357L987.254,2114.984L900.471,2054.209L804.068,2114.918L804.068,2192.059L766.564,2196.011L766.564,2140.098L708.122,2150.247L900.408,2008.279L970.967,2062.453L970.967,2043.827L1008.472,2043.827L1008.472,2091.248Z" style="fill:url(#_Linear7);"/></g><path d="M829.773,2269.634C940.321,2267.721 1003.873,2236.877 1060.877,2205.654C990.854,2229.774 913.99,2252.126 829.773,2269.634Z" style="fill:url(#_Linear8);"/><path d="M547.515,2170.473C516.001,2151.268 502.958,2121.48 518.775,2077.919C519.176,2109.535 526.619,2134.351 547.515,2149.005L547.515,1982.79L583.246,1964.161L583.246,2185.806C569.66,2181.716 557.635,2176.64 547.515,2170.473Z" style="fill:url(#_Linear9);"/><path d="M583.246,1964.161L618.977,1945.532L618.977,2193.833C606.172,2191.761 594.202,2189.104 583.246,2185.806L583.246,1964.161Z" style="fill:url(#_Linear10);"/><path d="M637.555,2196.37L637.555,1875.622L732.678,1922.186L732.678,1978.26L680.331,2008.874L680.331,2199.35C665.441,2198.881 651.122,2197.906 637.555,2196.37Z" style="fill:url(#_Linear11);"/><path d="M732.118,2026.534L698.328,2046.043L698.328,2016.568L732.118,1997.414L732.118,2026.534ZM732.118,2110.2L698.328,2134.614L698.328,2108.675L732.118,2089.166L732.118,2110.2ZM732.118,2077.863L698.328,2097.371L698.328,2083.126L732.118,2063.618L732.118,2077.863ZM732.118,2052.314L698.328,2071.823L698.328,2057.346L732.118,2037.838L732.118,2052.314Z" style="fill:url(#_Linear12);"/><path d="M732.118,1997.414L765.907,1978.26L765.907,2085.786L732.118,2110.2L732.118,1997.414Z" style="fill:url(#_Linear13);"/><path d="M1110.937,2171.62C1116.17,2170.239 1121.418,2168.843 1126.681,2167.434" style="fill:none;"/><path d="M510.001,2061.001C485.17,2099.935 467.215,2155.72 533.973,2194.263C538.254,2196.735 542.772,2199.031 547.515,2201.158C548.863,2201.763 550.23,2202.355 551.614,2202.932C666.636,2250.943 905.162,2206.303 1110.937,2171.62C855.025,2239.147 634.314,2271.991 538.883,2221.747C473.636,2187.394 444.771,2123.562 510.001,2061.001Z" style="fill:url(#_Linear14);"/><path d="M1110.937,2171.62C1116.207,2170.731 1121.456,2169.849 1126.681,2168.976C885.738,2245.836 589.316,2328.218 478.328,2226.472C432.026,2184.025 455.429,2097.069 510.001,2061.001C444.771,2123.562 473.636,2187.394 538.883,2221.747C634.314,2271.991 855.025,2239.147 1110.937,2171.62Z" style="fill:url(#_Linear15);"/></g><g transform="matrix(1.181561,0,0,2.301961,-514.352896,-5875.179602)"><g transform="matrix(0.343849,0,0,0.989162,2294.090081,1897.52615)"><g transform="matrix(1,0,0,1,0,-1.555886)"><rect x="522.168" y="2536.341" width="127.265" height="6.25" style="fill:url(#_Linear16);"/></g><g transform="matrix(1,0,0,1,360.652058,-1.555886)"><rect x="522.168" y="2536.341" width="127.265" height="6.25" style="fill:url(#_Linear17);"/></g></g><g transform="matrix(0.343849,0,0,0.989162,2295.323317,1897.52615)"><g><g transform="matrix(4.059608,0,0,4.059608,-1529.154372,-7392.444943)"><path d="M463.868,2424.189C465.402,2424.189 466.702,2424.056 467.769,2423.789C468.836,2423.522 469.753,2423.156 470.52,2422.689L471.921,2427.691C471.121,2428.158 469.987,2428.575 468.52,2428.941C467.052,2429.308 465.268,2429.492 463.167,2429.492C460.8,2429.492 458.615,2429.117 456.614,2428.366C454.613,2427.616 452.888,2426.532 451.437,2425.115C449.986,2423.697 448.861,2421.98 448.061,2419.963C447.26,2417.945 446.86,2415.669 446.86,2413.135C446.86,2410.667 447.252,2408.433 448.036,2406.432C448.819,2404.431 449.92,2402.722 451.337,2401.304C452.754,2399.887 454.48,2398.795 456.514,2398.028C458.549,2397.261 460.816,2396.878 463.317,2396.878C465.452,2396.878 467.211,2397.078 468.595,2397.478C469.979,2397.878 471.104,2398.311 471.971,2398.778L470.42,2403.831C469.553,2403.364 468.595,2402.972 467.544,2402.655C466.494,2402.338 465.318,2402.18 464.018,2402.18C462.65,2402.18 461.366,2402.38 460.166,2402.78C458.965,2403.18 457.915,2403.822 457.015,2404.706C456.114,2405.59 455.406,2406.723 454.889,2408.107C454.372,2409.491 454.113,2411.167 454.113,2413.135C454.113,2415.035 454.363,2416.678 454.864,2418.062C455.364,2419.446 456.056,2420.588 456.94,2421.488C457.823,2422.389 458.857,2423.064 460.041,2423.514C461.225,2423.964 462.5,2424.189 463.868,2424.189Z" style="fill:white;fill-rule:nonzero;"/></g><g transform="matrix(4.059608,0,0,4.059608,-1529.154372,-7392.444943)"><path d="M490.829,2405.081L497.482,2405.081L497.482,2428.941L492.53,2428.941L491.83,2426.24L491.63,2426.24C491.263,2426.607 490.838,2426.982 490.354,2427.366C489.87,2427.749 489.304,2428.099 488.653,2428.416C488.003,2428.733 487.269,2428.991 486.452,2429.192C485.635,2429.392 484.727,2429.492 483.726,2429.492C481.158,2429.492 479.132,2428.775 477.649,2427.341C476.165,2425.907 475.423,2423.789 475.423,2420.988L475.423,2405.081L482.075,2405.081L482.075,2420.438C482.075,2421.872 482.417,2422.905 483.101,2423.539C483.785,2424.173 484.66,2424.49 485.727,2424.49C486.928,2424.49 487.953,2424.239 488.803,2423.739C489.654,2423.239 490.329,2422.655 490.829,2421.988L490.829,2405.081Z" style="fill:white;fill-rule:nonzero;"/></g><g transform="matrix(4.059608,0,0,4.059608,-1529.154372,-7392.444943)"><path d="M499.883,2405.081L507.136,2405.081L511.388,2416.436L512.989,2422.239L513.189,2422.239L514.74,2416.386L518.441,2405.081L525.244,2405.081L516.49,2429.792C515.99,2431.159 515.432,2432.468 514.815,2433.719C514.198,2434.969 513.447,2436.128 512.564,2437.195C511.68,2438.262 510.638,2439.213 509.437,2440.046C508.237,2440.88 506.82,2441.564 505.185,2442.097L502.434,2436.945C504.302,2436.278 505.869,2435.311 507.136,2434.044C508.404,2432.776 509.271,2431.259 509.737,2429.492L509.938,2428.841L499.883,2405.081Z" style="fill:white;fill-rule:nonzero;"/></g><g transform="matrix(4.059608,0,0,4.059608,-1529.154372,-7392.444943)"><path d="M550.805,2416.836C550.805,2418.804 550.489,2420.571 549.855,2422.138C549.221,2423.706 548.346,2425.031 547.229,2426.115C546.112,2427.199 544.803,2428.033 543.302,2428.616C541.801,2429.2 540.184,2429.492 538.45,2429.492C536.716,2429.492 535.107,2429.225 533.623,2428.691C532.139,2428.158 530.855,2427.374 529.771,2426.34C528.687,2425.307 527.837,2424.031 527.22,2422.514C526.603,2420.996 526.295,2419.271 526.295,2417.336C526.295,2415.302 526.611,2413.493 527.245,2411.909C527.879,2410.325 528.754,2408.991 529.871,2407.907C530.988,2406.823 532.297,2405.998 533.798,2405.431C535.299,2404.864 536.916,2404.581 538.65,2404.581C540.384,2404.581 541.993,2404.848 543.477,2405.381C544.961,2405.915 546.245,2406.69 547.329,2407.707C548.413,2408.724 549.263,2410 549.88,2411.534C550.497,2413.068 550.805,2414.835 550.805,2416.836ZM543.952,2417.086C543.952,2415.719 543.802,2414.552 543.502,2413.585C543.202,2412.618 542.802,2411.834 542.302,2411.234C541.801,2410.633 541.218,2410.192 540.551,2409.908C539.884,2409.625 539.2,2409.483 538.5,2409.483C537.8,2409.483 537.133,2409.608 536.499,2409.858C535.865,2410.108 535.299,2410.525 534.798,2411.109C534.298,2411.692 533.898,2412.468 533.598,2413.435C533.298,2414.402 533.148,2415.619 533.148,2417.086C533.148,2418.387 533.298,2419.512 533.598,2420.463C533.898,2421.413 534.306,2422.189 534.823,2422.789C535.34,2423.389 535.924,2423.839 536.574,2424.139C537.224,2424.439 537.9,2424.59 538.6,2424.59C539.3,2424.59 539.967,2424.464 540.601,2424.214C541.234,2423.964 541.801,2423.539 542.302,2422.939C542.802,2422.339 543.202,2421.563 543.502,2420.613C543.802,2419.662 543.952,2418.487 543.952,2417.086Z" style="fill:white;fill-rule:nonzero;"/></g></g><g><g transform="matrix(4.059608,0,0,4.059608,-1529.154372,-7392.444943)"><path d="M565.262,2396.878C567.296,2396.878 569.097,2397.078 570.664,2397.478C572.231,2397.878 573.632,2398.395 574.866,2399.028L573.315,2404.131C571.948,2403.464 570.631,2402.955 569.363,2402.605C568.096,2402.255 566.862,2402.08 565.662,2402.08C564.061,2402.08 562.819,2402.397 561.935,2403.03C561.051,2403.664 560.61,2404.514 560.61,2405.581C560.61,2406.682 560.993,2407.515 561.76,2408.082C562.527,2408.649 563.761,2409.2 565.462,2409.733L568.463,2410.684C570.964,2411.517 572.923,2412.701 574.341,2414.235C575.758,2415.769 576.466,2417.653 576.466,2419.888C576.466,2421.221 576.216,2422.472 575.716,2423.639C575.216,2424.806 574.466,2425.823 573.465,2426.69C572.465,2427.558 571.214,2428.241 569.714,2428.741C568.213,2429.242 566.462,2429.492 564.461,2429.492C560.693,2429.492 557.241,2428.725 554.107,2427.191L555.657,2422.088C557.091,2422.789 558.492,2423.331 559.859,2423.714C561.227,2424.098 562.66,2424.289 564.161,2424.289C565.929,2424.289 567.262,2423.964 568.163,2423.314C569.063,2422.664 569.513,2421.755 569.513,2420.588C569.513,2420.188 569.438,2419.796 569.288,2419.412C569.138,2419.029 568.863,2418.662 568.463,2418.312C568.063,2417.962 567.521,2417.612 566.837,2417.261C566.154,2416.911 565.262,2416.569 564.161,2416.236L561.51,2415.336C560.343,2414.935 559.276,2414.468 558.309,2413.935C557.341,2413.401 556.516,2412.784 555.833,2412.084C555.149,2411.384 554.615,2410.558 554.232,2409.608C553.848,2408.658 553.657,2407.549 553.657,2406.282C553.657,2404.914 553.907,2403.655 554.407,2402.505C554.907,2401.354 555.649,2400.362 556.633,2399.529C557.617,2398.695 558.834,2398.045 560.284,2397.578C561.735,2397.111 563.394,2396.878 565.262,2396.878Z" style="fill:url(#_Linear18);fill-rule:nonzero;"/></g><g transform="matrix(4.059608,0,0,4.059608,-1529.154372,-7392.444943)"><path d="M587.121,2428.941L580.468,2428.941L580.468,2405.081L585.67,2405.081L586.471,2408.132C587.538,2407.032 588.705,2406.165 589.972,2405.531C591.24,2404.898 592.674,2404.581 594.274,2404.581C597.676,2404.581 599.993,2405.815 601.227,2408.282C602.294,2407.115 603.512,2406.207 604.879,2405.556C606.246,2404.906 607.713,2404.581 609.281,2404.581C611.815,2404.581 613.758,2405.264 615.108,2406.632C616.459,2407.999 617.134,2409.983 617.134,2412.584L617.134,2428.941L610.481,2428.941L610.481,2413.335C610.481,2412.201 610.206,2411.309 609.656,2410.658C609.106,2410.008 608.297,2409.683 607.23,2409.683C606.329,2409.683 605.421,2409.9 604.504,2410.333C603.587,2410.767 602.795,2411.384 602.128,2412.184L602.128,2428.941L595.475,2428.941L595.475,2413.335C595.475,2412.201 595.2,2411.309 594.649,2410.658C594.099,2410.008 593.29,2409.683 592.223,2409.683C591.323,2409.683 590.414,2409.925 589.497,2410.408C588.58,2410.892 587.788,2411.551 587.121,2412.384L587.121,2428.941Z" style="fill:url(#_Linear19);fill-rule:nonzero;"/></g><g transform="matrix(4.059608,0,0,4.059608,-1529.154372,-7392.444943)"><path d="M622.637,2407.182C624.071,2406.348 625.588,2405.706 627.189,2405.256C628.789,2404.806 630.49,2404.581 632.291,2404.581C633.725,2404.581 635.034,2404.748 636.217,2405.081C637.401,2405.415 638.418,2405.94 639.269,2406.657C640.119,2407.374 640.769,2408.291 641.22,2409.408C641.67,2410.525 641.895,2411.867 641.895,2413.435L641.895,2428.941L636.743,2428.941L636.142,2426.49L635.942,2426.49C635.175,2427.424 634.2,2428.158 633.016,2428.691C631.832,2429.225 630.457,2429.492 628.889,2429.492C627.589,2429.492 626.438,2429.3 625.438,2428.916C624.437,2428.533 623.587,2428.016 622.887,2427.366C622.186,2426.715 621.661,2425.94 621.311,2425.04C620.961,2424.139 620.786,2423.172 620.786,2422.138C620.786,2420.771 621.078,2419.596 621.661,2418.612C622.245,2417.628 623.053,2416.82 624.087,2416.186C625.121,2415.552 626.33,2415.085 627.714,2414.785C629.098,2414.485 630.59,2414.335 632.191,2414.335L635.192,2414.335L635.192,2412.884C635.192,2411.784 634.85,2410.975 634.167,2410.458C633.483,2409.942 632.524,2409.683 631.29,2409.683C630.323,2409.683 629.331,2409.833 628.314,2410.133C627.297,2410.433 626.171,2410.917 624.938,2411.584L622.637,2407.182ZM635.242,2418.487L633.091,2418.537C631.057,2418.604 629.64,2418.945 628.839,2419.562C628.039,2420.179 627.639,2420.921 627.639,2421.788C627.639,2422.922 627.981,2423.697 628.664,2424.114C629.348,2424.531 630.123,2424.74 630.99,2424.74C631.857,2424.74 632.683,2424.49 633.466,2423.989C634.25,2423.489 634.842,2422.905 635.242,2422.239L635.242,2418.487Z" style="fill:url(#_Linear20);fill-rule:nonzero;"/></g><g transform="matrix(4.059608,0,0,4.059608,-1529.154372,-7392.444943)"><path d="M646.597,2428.941L646.597,2405.081L651.749,2405.081L652.5,2409.383C653.066,2408.116 653.967,2406.999 655.201,2406.031C656.435,2405.064 657.985,2404.581 659.853,2404.581C660.62,2404.581 661.303,2404.664 661.904,2404.831C662.504,2404.998 663.004,2405.198 663.404,2405.431L662.304,2410.684C661.937,2410.483 661.47,2410.308 660.903,2410.158C660.336,2410.008 659.669,2409.933 658.902,2409.933C657.268,2409.933 655.909,2410.475 654.826,2411.559C653.742,2412.643 653.2,2414.418 653.2,2416.886L653.2,2428.941L646.597,2428.941Z" style="fill:url(#_Linear21);fill-rule:nonzero;"/></g><g transform="matrix(4.059608,0,0,4.059608,-1529.154372,-7392.444943)"><path d="M680.912,2409.883L674.559,2409.883L674.559,2420.888C674.559,2422.022 674.818,2422.797 675.334,2423.214C675.851,2423.631 676.543,2423.839 677.41,2423.839C678.077,2423.839 678.761,2423.773 679.461,2423.639C680.162,2423.506 680.728,2423.322 681.162,2423.089L682.162,2427.741C681.596,2428.008 680.745,2428.274 679.611,2428.541C678.477,2428.808 677.277,2428.941 676.01,2428.941C673.108,2428.941 671.041,2428.366 669.807,2427.216C668.573,2426.065 667.956,2424.339 667.956,2422.038L667.956,2409.883L664.255,2409.883L664.255,2405.081L667.956,2405.081L667.956,2397.728L674.559,2397.728L674.559,2405.081L680.912,2405.081L680.912,2409.883Z" style="fill:url(#_Linear22);fill-rule:nonzero;"/></g></g></g><g transform="matrix(0.343849,0,0,0.989162,2293.752911,1897.52615)"><g transform="matrix(1.620789,0,0,1.620789,-422.542946,-1630.654057)"><path d="M692.235,2561.817C694.468,2561.817 696.445,2562.037 698.165,2562.476C699.886,2562.915 701.423,2563.483 702.778,2564.178L701.075,2569.779C699.574,2569.047 698.128,2568.489 696.737,2568.104C695.346,2567.72 693.992,2567.528 692.674,2567.528C690.917,2567.528 689.553,2567.875 688.583,2568.571C687.613,2569.267 687.128,2570.2 687.128,2571.371C687.128,2572.579 687.549,2573.495 688.391,2574.117C689.233,2574.739 690.587,2575.343 692.454,2575.929L695.749,2576.972C698.495,2577.888 700.645,2579.187 702.201,2580.871C703.757,2582.555 704.535,2584.623 704.535,2587.076C704.535,2588.54 704.26,2589.913 703.711,2591.194C703.162,2592.475 702.338,2593.592 701.24,2594.544C700.142,2595.496 698.769,2596.246 697.122,2596.795C695.474,2597.344 693.553,2597.619 691.356,2597.619C687.22,2597.619 683.431,2596.777 679.99,2595.093L681.692,2589.492C683.266,2590.261 684.803,2590.856 686.304,2591.277C687.805,2591.698 689.379,2591.908 691.027,2591.908C692.967,2591.908 694.431,2591.551 695.42,2590.837C696.408,2590.123 696.902,2589.126 696.902,2587.845C696.902,2587.405 696.82,2586.975 696.655,2586.554C696.49,2586.133 696.188,2585.731 695.749,2585.346C695.31,2584.962 694.715,2584.577 693.964,2584.193C693.214,2583.809 692.235,2583.434 691.027,2583.067L688.116,2582.079C686.835,2581.64 685.664,2581.127 684.602,2580.542C683.541,2579.956 682.634,2579.279 681.884,2578.51C681.134,2577.741 680.548,2576.835 680.127,2575.792C679.706,2574.748 679.495,2573.531 679.495,2572.14C679.495,2570.639 679.77,2569.257 680.319,2567.994C680.868,2566.732 681.683,2565.642 682.763,2564.727C683.843,2563.812 685.179,2563.098 686.771,2562.586C688.363,2562.073 690.185,2561.817 692.235,2561.817Z" style="fill:white;fill-rule:nonzero;"/><path d="M729.464,2583.507L738.25,2583.507L736.657,2578.894C736.145,2577.467 735.669,2576.03 735.23,2574.584C734.79,2573.138 734.369,2571.683 733.967,2570.218L733.857,2570.218C733.454,2571.609 733.015,2573.028 732.539,2574.474C732.063,2575.92 731.569,2577.393 731.057,2578.894L729.464,2583.507ZM730.123,2562.421L737.92,2562.421L750.715,2597.015L742.753,2597.015L740.062,2589.053L727.762,2589.053L725.071,2597.015L717.219,2597.015L730.123,2562.421Z" style="fill:white;fill-rule:nonzero;"/><path d="M776.193,2561.817C778.426,2561.817 780.403,2562.037 782.123,2562.476C783.844,2562.915 785.381,2563.483 786.736,2564.178L785.034,2569.779C783.533,2569.047 782.087,2568.489 780.696,2568.104C779.305,2567.72 777.95,2567.528 776.632,2567.528C774.875,2567.528 773.512,2567.875 772.542,2568.571C771.571,2569.267 771.086,2570.2 771.086,2571.371C771.086,2572.579 771.507,2573.495 772.349,2574.117C773.191,2574.739 774.546,2575.343 776.413,2575.929L779.707,2576.972C782.453,2577.888 784.604,2579.187 786.159,2580.871C787.715,2582.555 788.493,2584.623 788.493,2587.076C788.493,2588.54 788.219,2589.913 787.669,2591.194C787.12,2592.475 786.297,2593.592 785.198,2594.544C784.1,2595.496 782.727,2596.246 781.08,2596.795C779.433,2597.344 777.511,2597.619 775.315,2597.619C771.178,2597.619 767.389,2596.777 763.948,2595.093L765.65,2589.492C767.224,2590.261 768.762,2590.856 770.263,2591.277C771.764,2591.698 773.338,2591.908 774.985,2591.908C776.925,2591.908 778.39,2591.551 779.378,2590.837C780.366,2590.123 780.861,2589.126 780.861,2587.845C780.861,2587.405 780.778,2586.975 780.613,2586.554C780.449,2586.133 780.147,2585.731 779.707,2585.346C779.268,2584.962 778.673,2584.577 777.923,2584.193C777.172,2583.809 776.193,2583.434 774.985,2583.067L772.075,2582.079C770.794,2581.64 769.622,2581.127 768.561,2580.542C767.499,2579.956 766.593,2579.279 765.842,2578.51C765.092,2577.741 764.506,2576.835 764.085,2575.792C763.664,2574.748 763.454,2573.531 763.454,2572.14C763.454,2570.639 763.728,2569.257 764.277,2567.994C764.827,2566.732 765.641,2565.642 766.721,2564.727C767.801,2563.812 769.137,2563.098 770.729,2562.586C772.322,2562.073 774.143,2561.817 776.193,2561.817Z" style="fill:white;fill-rule:nonzero;"/></g></g></g></g></g></g></g><defs><linearGradient id="_Linear2" x1="0" y1="0" x2="1" y2="0" gradientUnits="userSpaceOnUse" gradientTransform="matrix(-0.843486,-231.960583,166.804156,-1.172966,548.130412,2173.357472)"><stop offset="0" style="stop-color:rgb(20,92,146);stop-opacity:1"/><stop offset="1" style="stop-color:rgb(0,152,203);stop-opacity:1"/></linearGradient><linearGradient id="_Linear3" x1="0" y1="0" x2="1" y2="0" gradientUnits="userSpaceOnUse" gradientTransform="matrix(-1.243571,-189.950308,189.950308,-1.243571,895.324821,2194.572184)"><stop offset="0" style="stop-color:rgb(242,105,39);stop-opacity:1"/><stop offset="0.55" style="stop-color:rgb(251,159,25);stop-opacity:1"/><stop offset="1" style="stop-color:rgb(255,182,19);stop-opacity:1"/></linearGradient><linearGradient id="_Linear4" x1="0" y1="0" x2="1" y2="0" gradientUnits="userSpaceOnUse" gradientTransform="matrix(-189.950308,1.243571,-1.243571,-189.950308,971.490947,2122.50246)"><stop offset="0" style="stop-color:rgb(242,105,39);stop-opacity:1"/><stop offset="0.55" style="stop-color:rgb(251,159,25);stop-opacity:1"/><stop offset="1" style="stop-color:rgb(255,182,19);stop-opacity:1"/></linearGradient><linearGradient id="_Linear5" x1="0" y1="0" x2="1" y2="0" gradientUnits="userSpaceOnUse" gradientTransform="matrix(-189.950308,1.243571,-1.243571,-189.950308,942.55973,2093.571243)"><stop offset="0" style="stop-color:rgb(242,105,39);stop-opacity:1"/><stop offset="0.55" style="stop-color:rgb(251,159,25);stop-opacity:1"/><stop offset="1" style="stop-color:rgb(255,182,19);stop-opacity:1"/></linearGradient><linearGradient id="_Linear6" x1="0" y1="0" x2="1" y2="0" gradientUnits="userSpaceOnUse" gradientTransform="matrix(-189.950308,1.243571,-1.243571,-189.950308,942.55973,2122.50246)"><stop offset="0" style="stop-color:rgb(242,105,39);stop-opacity:1"/><stop offset="0.55" style="stop-color:rgb(251,159,25);stop-opacity:1"/><stop offset="1" style="stop-color:rgb(255,182,19);stop-opacity:1"/></linearGradient><linearGradient id="_Linear7" x1="0" y1="0" x2="1" y2="0" gradientUnits="userSpaceOnUse" gradientTransform="matrix(-1.273175,-194.472098,194.472098,-1.273175,895.8093,2196.010546)"><stop offset="0" style="stop-color:rgb(242,105,39);stop-opacity:1"/><stop offset="0.55" style="stop-color:rgb(251,159,25);stop-opacity:1"/><stop offset="1" style="stop-color:rgb(255,182,19);stop-opacity:1"/></linearGradient><linearGradient id="_Linear8" x1="0" y1="0" x2="1" y2="0" gradientUnits="userSpaceOnUse" gradientTransform="matrix(231.104249,-63.979913,63.979913,231.104249,829.772959,2269.633642)"><stop offset="0" style="stop-color:rgb(20,134,189);stop-opacity:1"/><stop offset="1" style="stop-color:rgb(4,73,145);stop-opacity:1"/></linearGradient><linearGradient id="_Linear9" x1="0" y1="0" x2="1" y2="0" gradientUnits="userSpaceOnUse" gradientTransform="matrix(-0,-221.644404,221.644404,-0,583.246083,2185.805814)"><stop offset="0" style="stop-color:rgb(0,114,183);stop-opacity:1"/><stop offset="1" style="stop-color:rgb(39,178,225);stop-opacity:1"/></linearGradient><linearGradient id="_Linear10" x1="0" y1="0" x2="1" y2="0" gradientUnits="userSpaceOnUse" gradientTransform="matrix(0,-248.300503,248.300503,0,618.977269,2193.832999)"><stop offset="0" style="stop-color:rgb(4,62,118);stop-opacity:1"/><stop offset="1" style="stop-color:rgb(0,170,213);stop-opacity:1"/></linearGradient><linearGradient id="_Linear11" x1="0" y1="0" x2="1" y2="0" gradientUnits="userSpaceOnUse" gradientTransform="matrix(0,-323.72838,323.72838,0,680.331204,2199.350321)"><stop offset="0" style="stop-color:rgb(6,108,178);stop-opacity:1"/><stop offset="1" style="stop-color:rgb(121,219,238);stop-opacity:1"/></linearGradient><linearGradient id="_Linear12" x1="0" y1="0" x2="1" y2="0" gradientUnits="userSpaceOnUse" gradientTransform="matrix(-0,-137.200279,137.200279,-0,698.328117,2134.614325)"><stop offset="0" style="stop-color:rgb(4,70,131);stop-opacity:1"/><stop offset="0.43" style="stop-color:rgb(6,103,159);stop-opacity:1"/><stop offset="1" style="stop-color:rgb(12,179,224);stop-opacity:1"/></linearGradient><linearGradient id="_Linear13" x1="0" y1="0" x2="1" y2="0" gradientUnits="userSpaceOnUse" gradientTransform="matrix(0.559945,133.637769,-133.637769,0.559945,732.117708,1976.562252)"><stop offset="0" style="stop-color:rgb(1,176,219);stop-opacity:1"/><stop offset="1" style="stop-color:rgb(0,75,149);stop-opacity:1"/></linearGradient><linearGradient id="_Linear14" x1="0" y1="0" x2="1" y2="0" gradientUnits="userSpaceOnUse" gradientTransform="matrix(474.967907,71.408079,-71.408079,474.967907,503.424701,2096.025494)"><stop offset="0" style="stop-color:rgb(255,188,22);stop-opacity:1"/><stop offset="1" style="stop-color:rgb(254,176,8);stop-opacity:1"/></linearGradient><linearGradient id="_Linear15" x1="0" y1="0" x2="1" y2="0" gradientUnits="userSpaceOnUse" gradientTransform="matrix(516.793245,59.635634,-59.635634,516.793245,473.631899,2141.704926)"><stop offset="0" style="stop-color:rgb(255,138,18);stop-opacity:1"/><stop offset="0.39" style="stop-color:rgb(254,94,24);stop-opacity:1"/><stop offset="1" style="stop-color:rgb(254,85,25);stop-opacity:1"/></linearGradient><linearGradient id="_Linear16" x1="0" y1="0" x2="1" y2="0" gradientUnits="userSpaceOnUse" gradientTransform="matrix(0,-6.25,6.25,0,649.433238,2542.590615)"><stop offset="0" style="stop-color:rgb(17,69,95);stop-opacity:1"/><stop offset="1" style="stop-color:rgb(67,139,175);stop-opacity:1"/></linearGradient><linearGradient id="_Linear17" x1="0" y1="0" x2="1" y2="0" gradientUnits="userSpaceOnUse" gradientTransform="matrix(0,-6.25,6.25,0,649.433238,2542.590615)"><stop offset="0" style="stop-color:rgb(17,69,95);stop-opacity:1"/><stop offset="1" style="stop-color:rgb(67,139,175);stop-opacity:1"/></linearGradient><linearGradient id="_Linear18" x1="0" y1="0" x2="1" y2="0" gradientUnits="userSpaceOnUse" gradientTransform="matrix(0,-32.614179,32.614179,0,616.572727,2429.491679)"><stop offset="0" style="stop-color:rgb(254,113,28);stop-opacity:1"/><stop offset="1" style="stop-color:rgb(255,169,18);stop-opacity:1"/></linearGradient><linearGradient id="_Linear19" x1="0" y1="0" x2="1" y2="0" gradientUnits="userSpaceOnUse" gradientTransform="matrix(0,-32.614179,32.614179,0,616.572727,2429.491679)"><stop offset="0" style="stop-color:rgb(254,113,28);stop-opacity:1"/><stop offset="1" style="stop-color:rgb(255,169,18);stop-opacity:1"/></linearGradient><linearGradient id="_Linear20" x1="0" y1="0" x2="1" y2="0" gradientUnits="userSpaceOnUse" gradientTransform="matrix(0,-32.614179,32.614179,0,616.572727,2429.491679)"><stop offset="0" style="stop-color:rgb(254,113,28);stop-opacity:1"/><stop offset="1" style="stop-color:rgb(255,169,18);stop-opacity:1"/></linearGradient><linearGradient id="_Linear21" x1="0" y1="0" x2="1" y2="0" gradientUnits="userSpaceOnUse" gradientTransform="matrix(0,-32.614179,32.614179,0,616.572727,2429.491679)"><stop offset="0" style="stop-color:rgb(254,113,28);stop-opacity:1"/><stop offset="1" style="stop-color:rgb(255,169,18);stop-opacity:1"/></linearGradient><linearGradient id="_Linear22" x1="0" y1="0" x2="1" y2="0" gradientUnits="userSpaceOnUse" gradientTransform="matrix(0,-32.614179,32.614179,0,616.572727,2429.491679)"><stop offset="0" style="stop-color:rgb(254,113,28);stop-opacity:1"/><stop offset="1" style="stop-color:rgb(255,169,18);stop-opacity:1"/></linearGradient></defs></svg>