<?xml version="1.0" encoding="UTF-8" standalone="no"?><!DOCTYPE svg PUBLIC "-//W3C//DTD SVG 1.1//EN" "http://www.w3.org/Graphics/SVG/1.1/DTD/svg11.dtd"><svg width="100%" height="100%" viewBox="0 0 697 697" version="1.1" xmlns="http://www.w3.org/2000/svg" xmlns:xlink="http://www.w3.org/1999/xlink" xml:space="preserve" xmlns:serif="http://www.serif.com/" style="fill-rule:evenodd;clip-rule:evenodd;stroke-linejoin:round;stroke-miterlimit:2;"><g transform="matrix(1,0,0,1,-1181,0)"><g id="logo_symmetrical" transform="matrix(0.7375,0,0,1,309.937008,-3744)"><rect x="1181.102" y="3744" width="944.882" height="696.85" style="fill:none;"/><g transform="matrix(1.341236,0,0,0.989162,593.772867,2020.925634)"><g transform="matrix(0.570967,0,0,0.410586,471.520095,1179.4523)"><path d="M618.576,1989.911L618.576,2102.724L547.114,2173.357L547.114,1941.397L618.576,1989.911Z" style="fill:url(#_Linear1);"/></g><g><g><g transform="matrix(1.023805,0,0,1.023805,-20.828838,-50.803697)"><rect x="871.734" y="2094.815" width="22.348" height="22.348" style="fill:url(#_Linear2);"/></g><g transform="matrix(0,1.023805,-1.023805,0,3068.838191,1201.393138)"><rect x="871.734" y="2094.815" width="22.348" height="22.348" style="fill:url(#_Linear3);"/></g><g transform="matrix(0,1.023805,-1.023805,0,3039.218263,1231.013066)"><rect x="871.734" y="2094.815" width="22.348" height="22.348" style="fill:url(#_Linear4);"/></g><g transform="matrix(0,1.023805,-1.023805,0,3068.838191,1231.013066)"><rect x="871.734" y="2094.815" width="22.348" height="22.348" style="fill:url(#_Linear5);"/></g></g><path d="M1008.472,2091.248L1083.496,2148.851L1024.758,2139.779L1024.758,2163.72L987.254,2169.357L987.254,2114.984L900.471,2054.209L804.068,2114.918L804.068,2192.059L766.564,2196.011L766.564,2140.098L708.122,2150.247L900.408,2008.279L970.967,2062.453L970.967,2043.827L1008.472,2043.827L1008.472,2091.248Z" style="fill:url(#_Linear6);"/></g><path d="M829.773,2269.634C940.321,2267.721 1003.873,2236.877 1060.877,2205.654C990.854,2229.774 913.99,2252.126 829.773,2269.634Z" style="fill:url(#_Linear7);"/><path d="M547.515,2170.473C516.001,2151.268 502.958,2121.48 518.775,2077.919C519.176,2109.535 526.619,2134.351 547.515,2149.005L547.515,1982.79L583.246,1964.161L583.246,2185.806C569.66,2181.716 557.635,2176.64 547.515,2170.473Z" style="fill:url(#_Linear8);"/><path d="M583.246,1964.161L618.977,1945.532L618.977,2193.833C606.172,2191.761 594.202,2189.104 583.246,2185.806L583.246,1964.161Z" style="fill:url(#_Linear9);"/><path d="M637.555,2196.37L637.555,1875.622L732.678,1922.186L732.678,1978.26L680.331,2008.874L680.331,2199.35C665.441,2198.881 651.122,2197.906 637.555,2196.37Z" style="fill:url(#_Linear10);"/><path d="M732.118,2026.534L698.328,2046.043L698.328,2016.568L732.118,1997.414L732.118,2026.534ZM732.118,2110.2L698.328,2134.614L698.328,2108.675L732.118,2089.166L732.118,2110.2ZM732.118,2077.863L698.328,2097.371L698.328,2083.126L732.118,2063.618L732.118,2077.863ZM732.118,2052.314L698.328,2071.823L698.328,2057.346L732.118,2037.838L732.118,2052.314Z" style="fill:url(#_Linear11);"/><path d="M732.118,1997.414L765.907,1978.26L765.907,2085.786L732.118,2110.2L732.118,1997.414Z" style="fill:url(#_Linear12);"/><path d="M1110.937,2171.62C1116.17,2170.239 1121.418,2168.843 1126.681,2167.434" style="fill:none;"/><path d="M510.001,2061.001C485.17,2099.935 467.215,2155.72 533.973,2194.263C538.254,2196.735 542.772,2199.031 547.515,2201.158C548.863,2201.763 550.23,2202.355 551.614,2202.932C666.636,2250.943 905.162,2206.303 1110.937,2171.62C855.025,2239.147 634.314,2271.991 538.883,2221.747C473.636,2187.394 444.771,2123.562 510.001,2061.001Z" style="fill:url(#_Linear13);"/><path d="M1110.937,2171.62C1116.207,2170.731 1121.456,2169.849 1126.681,2168.976C885.738,2245.836 589.316,2328.218 478.328,2226.472C432.026,2184.025 455.429,2097.069 510.001,2061.001C444.771,2123.562 473.636,2187.394 538.883,2221.747C634.314,2271.991 855.025,2239.147 1110.937,2171.62Z" style="fill:url(#_Linear14);"/></g></g></g><defs><linearGradient id="_Linear1" x1="0" y1="0" x2="1" y2="0" gradientUnits="userSpaceOnUse" gradientTransform="matrix(-0.843486,-231.960583,166.804156,-1.172966,548.130412,2173.357472)"><stop offset="0" style="stop-color:rgb(20,92,146);stop-opacity:1"/><stop offset="1" style="stop-color:rgb(0,152,203);stop-opacity:1"/></linearGradient><linearGradient id="_Linear2" x1="0" y1="0" x2="1" y2="0" gradientUnits="userSpaceOnUse" gradientTransform="matrix(-1.243571,-189.950308,189.950308,-1.243571,895.324821,2194.572184)"><stop offset="0" style="stop-color:rgb(242,105,39);stop-opacity:1"/><stop offset="0.55" style="stop-color:rgb(251,159,25);stop-opacity:1"/><stop offset="1" style="stop-color:rgb(255,182,19);stop-opacity:1"/></linearGradient><linearGradient id="_Linear3" x1="0" y1="0" x2="1" y2="0" gradientUnits="userSpaceOnUse" gradientTransform="matrix(-189.950308,1.243571,-1.243571,-189.950308,971.490947,2122.50246)"><stop offset="0" style="stop-color:rgb(242,105,39);stop-opacity:1"/><stop offset="0.55" style="stop-color:rgb(251,159,25);stop-opacity:1"/><stop offset="1" style="stop-color:rgb(255,182,19);stop-opacity:1"/></linearGradient><linearGradient id="_Linear4" x1="0" y1="0" x2="1" y2="0" gradientUnits="userSpaceOnUse" gradientTransform="matrix(-189.950308,1.243571,-1.243571,-189.950308,942.55973,2093.571243)"><stop offset="0" style="stop-color:rgb(242,105,39);stop-opacity:1"/><stop offset="0.55" style="stop-color:rgb(251,159,25);stop-opacity:1"/><stop offset="1" style="stop-color:rgb(255,182,19);stop-opacity:1"/></linearGradient><linearGradient id="_Linear5" x1="0" y1="0" x2="1" y2="0" gradientUnits="userSpaceOnUse" gradientTransform="matrix(-189.950308,1.243571,-1.243571,-189.950308,942.55973,2122.50246)"><stop offset="0" style="stop-color:rgb(242,105,39);stop-opacity:1"/><stop offset="0.55" style="stop-color:rgb(251,159,25);stop-opacity:1"/><stop offset="1" style="stop-color:rgb(255,182,19);stop-opacity:1"/></linearGradient><linearGradient id="_Linear6" x1="0" y1="0" x2="1" y2="0" gradientUnits="userSpaceOnUse" gradientTransform="matrix(-1.273175,-194.472098,194.472098,-1.273175,895.8093,2196.010546)"><stop offset="0" style="stop-color:rgb(242,105,39);stop-opacity:1"/><stop offset="0.55" style="stop-color:rgb(251,159,25);stop-opacity:1"/><stop offset="1" style="stop-color:rgb(255,182,19);stop-opacity:1"/></linearGradient><linearGradient id="_Linear7" x1="0" y1="0" x2="1" y2="0" gradientUnits="userSpaceOnUse" gradientTransform="matrix(231.104249,-63.979913,63.979913,231.104249,829.772959,2269.633642)"><stop offset="0" style="stop-color:rgb(20,134,189);stop-opacity:1"/><stop offset="1" style="stop-color:rgb(4,73,145);stop-opacity:1"/></linearGradient><linearGradient id="_Linear8" x1="0" y1="0" x2="1" y2="0" gradientUnits="userSpaceOnUse" gradientTransform="matrix(-0,-221.644404,221.644404,-0,583.246083,2185.805814)"><stop offset="0" style="stop-color:rgb(0,114,183);stop-opacity:1"/><stop offset="1" style="stop-color:rgb(39,178,225);stop-opacity:1"/></linearGradient><linearGradient id="_Linear9" x1="0" y1="0" x2="1" y2="0" gradientUnits="userSpaceOnUse" gradientTransform="matrix(0,-248.300503,248.300503,0,618.977269,2193.832999)"><stop offset="0" style="stop-color:rgb(4,62,118);stop-opacity:1"/><stop offset="1" style="stop-color:rgb(0,170,213);stop-opacity:1"/></linearGradient><linearGradient id="_Linear10" x1="0" y1="0" x2="1" y2="0" gradientUnits="userSpaceOnUse" gradientTransform="matrix(0,-323.72838,323.72838,0,680.331204,2199.350321)"><stop offset="0" style="stop-color:rgb(6,108,178);stop-opacity:1"/><stop offset="1" style="stop-color:rgb(121,219,238);stop-opacity:1"/></linearGradient><linearGradient id="_Linear11" x1="0" y1="0" x2="1" y2="0" gradientUnits="userSpaceOnUse" gradientTransform="matrix(-0,-137.200279,137.200279,-0,698.328117,2134.614325)"><stop offset="0" style="stop-color:rgb(4,70,131);stop-opacity:1"/><stop offset="0.43" style="stop-color:rgb(6,103,159);stop-opacity:1"/><stop offset="1" style="stop-color:rgb(12,179,224);stop-opacity:1"/></linearGradient><linearGradient id="_Linear12" x1="0" y1="0" x2="1" y2="0" gradientUnits="userSpaceOnUse" gradientTransform="matrix(0.559945,133.637769,-133.637769,0.559945,732.117708,1976.562252)"><stop offset="0" style="stop-color:rgb(1,176,219);stop-opacity:1"/><stop offset="1" style="stop-color:rgb(0,75,149);stop-opacity:1"/></linearGradient><linearGradient id="_Linear13" x1="0" y1="0" x2="1" y2="0" gradientUnits="userSpaceOnUse" gradientTransform="matrix(474.967907,71.408079,-71.408079,474.967907,503.424701,2096.025494)"><stop offset="0" style="stop-color:rgb(255,188,22);stop-opacity:1"/><stop offset="1" style="stop-color:rgb(254,176,8);stop-opacity:1"/></linearGradient><linearGradient id="_Linear14" x1="0" y1="0" x2="1" y2="0" gradientUnits="userSpaceOnUse" gradientTransform="matrix(516.793245,59.635634,-59.635634,516.793245,473.631899,2141.704926)"><stop offset="0" style="stop-color:rgb(255,138,18);stop-opacity:1"/><stop offset="0.39" style="stop-color:rgb(254,94,24);stop-opacity:1"/><stop offset="1" style="stop-color:rgb(254,85,25);stop-opacity:1"/></linearGradient></defs></svg>